<svg version="1.1" xmlns="http://www.w3.org/2000/svg" viewBox="0 0 800 400"><g><path d="M160,150  L160,0  A150,150 0 1,1 41,242 L160,150  A0,0 0 1,0 160,150" stroke="white" stroke-width="1" fill="#3366cc" value="45523" onclick="if(confirm(&quot;Download the annotated sequences for this segment?&quot;)){window.open(&quot;https://api-ui.mg-rast.org/annotation/sequence/mgm4441593.3?browser=1&amp;filter_level=domain&amp;type=organism&amp;filter=Bacteria&quot;);}" style="opacity: 1;"></path><path d="M160,150  L41,242  A150,150 0 0,1 37,63 L160,150  A0,0 0 0,0 160,150" stroke="white" stroke-width="1" fill="#dc3912" value="14404" onclick="if(confirm(&quot;Download the annotated sequences for this segment?&quot;)){window.open(&quot;https://api-ui.mg-rast.org/annotation/sequence/mgm4441593.3?browser=1&amp;filter_level=domain&amp;type=organism&amp;filter=Viruses&quot;);}" style="opacity: 1;"></path><path d="M160,150  L37,63  A150,150 0 0,1 139,1 L160,150  A0,0 0 0,0 160,150" stroke="white" stroke-width="1" fill="#ff9900" value="9207" onclick="if(confirm(&quot;Download the annotated sequences for this segment?&quot;)){window.open(&quot;https://api-ui.mg-rast.org/annotation/sequence/mgm4441593.3?browser=1&amp;filter_level=domain&amp;type=organism&amp;filter=Eukaryota&quot;);}" style="opacity: 1;"></path><path d="M160,150  L139,1  A150,150 0 0,1 151,0 L160,150  A0,0 0 0,0 160,150" stroke="white" stroke-width="1" fill="#109618" value="873" onclick="if(confirm(&quot;Download the annotated sequences for this segment?&quot;)){window.open(&quot;https://api-ui.mg-rast.org/annotation/sequence/mgm4441593.3?browser=1&amp;filter_level=domain&amp;type=organism&amp;filter=Archaea&quot;);}" style="opacity: 1;"></path><path d="M160,150  L151,0  A150,150 0 0,1 159,0 L160,150  A0,0 0 0,0 160,150" stroke="white" stroke-width="1" fill="#990099" value="650" onclick="if(confirm(&quot;Download the annotated sequences for this segment?&quot;)){window.open(&quot;https://api-ui.mg-rast.org/annotation/sequence/mgm4441593.3?browser=1&amp;filter_level=domain&amp;type=organism&amp;filter=unclassified%20sequences&quot;);}" style="opacity: 1;"></path></g><g><rect x="400" y="50" width="15" height="15" stroke="white" stroke-width="0" fill="#3366cc"></rect><text x="430" y="63" font-size="15" font-weight="normal" font-family="Helvetica" style="cursor: default; font-weight: normal;">Bacteria - 45,523 (64.43%)</text><rect x="400" y="75" width="15" height="15" stroke="white" stroke-width="0" fill="#dc3912"></rect><text x="430" y="88" font-size="15" font-weight="normal" font-family="Helvetica" style="cursor: default; font-weight: normal;">Viruses - 14,404 (20.38%)</text><rect x="400" y="100" width="15" height="15" stroke="white" stroke-width="0" fill="#ff9900"></rect><text x="430" y="113" font-size="15" font-weight="normal" font-family="Helvetica" style="cursor: default; font-weight: normal;">Eukaryota - 9,207 (13.03%)</text><rect x="400" y="125" width="15" height="15" stroke="white" stroke-width="0" fill="#109618"></rect><text x="430" y="138" font-size="15" font-weight="normal" font-family="Helvetica" style="cursor: default; font-weight: normal;">Archaea - 873 (1.24%)</text><rect x="400" y="150" width="15" height="15" stroke="white" stroke-width="0" fill="#990099"></rect><text x="430" y="163" font-size="15" font-weight="normal" font-family="Helvetica" style="cursor: default; font-weight: normal;">unclassified sequences - 650 (0.92%)</text><rect x="400" y="175" width="15" height="15" stroke="white" stroke-width="0" fill="#0099c6"></rect><text x="430" y="188" font-size="15" font-weight="normal" font-family="Helvetica">other sequences - 3 (0.00%)</text></g></svg>