<svg version="1.1" xmlns="http://www.w3.org/2000/svg" viewBox="0 0 800 400"><g><g style="opacity: 1;"><g><title>23,534</title><rect x="105" y="262.7817384758447" width="20" height="37.21826152415534" fill="#dc3912" stroke="black" stroke-width="1" value="23534" title="23,534"></rect></g><g><title>10,873</title><rect x="105" y="245.58643986310818" width="20" height="17.195298612736508" fill="#ff9900" stroke="black" stroke-width="1" value="10873" title="10,873"></rect></g><g><title>10,359</title><rect x="105" y="229.20401566285642" width="20" height="16.38242420025177" fill="#e9e71f" stroke="black" stroke-width="1" value="10359" title="10,359"></rect></g><g><title>14,962</title><rect x="105" y="205.5420955079991" width="20" height="23.66192015485732" fill="#109618" stroke="black" stroke-width="1" value="14962" title="14,962"></rect></g><g><title>13,485</title><rect x="105" y="184.21600318823897" width="20" height="21.326092319760125" fill="#3366cc" stroke="black" stroke-width="1" value="13485" title="13,485"></rect></g></g><g style="opacity: 1;"><g><title>22,840</title><rect x="130" y="263.87927707947193" width="20" height="36.12072292052809" fill="#dc3912" stroke="black" stroke-width="1" value="22840" title="22,840"></rect></g><g><title>10,242</title><rect x="130" y="247.6818846034628" width="20" height="16.197392476009135" fill="#ff9900" stroke="black" stroke-width="1" value="10242" title="10,242"></rect></g><g><title>9,979</title><rect x="130" y="231.90041814006744" width="20" height="15.781466463395349" fill="#e9e71f" stroke="black" stroke-width="1" value="9979" title="9,979"></rect></g><g><title>13,228</title><rect x="130" y="210.98076302654968" width="20" height="20.919655113517756" fill="#109618" stroke="black" stroke-width="1" value="13228" title="13,228"></rect></g><g><title>11,716</title><rect x="130" y="192.45228711862904" width="20" height="18.528475907920622" fill="#3366cc" stroke="black" stroke-width="1" value="11716" title="11,716"></rect></g></g><g style="opacity: 1;"><g><title>23,768</title><rect x="155" y="262.41167502735937" width="20" height="37.58832497264061" fill="#dc3912" stroke="black" stroke-width="1" value="23768" title="23,768"></rect></g><g><title>10,895</title><rect x="155" y="245.18158412459434" width="20" height="17.23009090276504" fill="#ff9900" stroke="black" stroke-width="1" value="10895" title="10,895"></rect></g><g><title>10,364</title><rect x="155" y="228.7912525856997" width="20" height="16.390331538894618" fill="#e9e71f" stroke="black" stroke-width="1" value="10364" title="10,364"></rect></g><g><title>16,288</title><rect x="155" y="203.0323062227592" width="20" height="25.75894636294052" fill="#109618" stroke="black" stroke-width="1" value="16288" title="16,288"></rect></g><g><title>13,606</title><rect x="155" y="181.51485630784214" width="20" height="21.517449914917037" fill="#3366cc" stroke="black" stroke-width="1" value="13606" title="13,606"></rect></g></g><g style="opacity: 1;"><g><title>36,158</title><rect x="180" y="242.8172898703829" width="20" height="57.1827101296171" fill="#dc3912" stroke="black" stroke-width="1" value="36158" title="36,158"></rect></g><g><title>12,038</title><rect x="180" y="223.77958135386288" width="20" height="19.037708516520013" fill="#ff9900" stroke="black" stroke-width="1" value="12038" title="12,038"></rect></g><g><title>12,479</title><rect x="180" y="204.04444556904372" width="20" height="19.735135784819175" fill="#e9e71f" stroke="black" stroke-width="1" value="12479" title="12,479"></rect></g><g><title>11,787</title><rect x="180" y="185.40368545239465" width="20" height="18.640760116649062" fill="#109618" stroke="black" stroke-width="1" value="11787" title="11,787"></rect></g><g><title>9,943</title><rect x="180" y="169.6791518272278" width="20" height="15.724533625166845" fill="#3366cc" stroke="black" stroke-width="1" value="9943" title="9,943"></rect></g></g><g style="opacity: 1;"><g><title>19,394</title><rect x="205" y="269.3290148721225" width="20" height="30.670985127877483" fill="#dc3912" stroke="black" stroke-width="1" value="19394" title="19,394"></rect></g><g><title>7,746</title><rect x="205" y="257.0789658466229" width="20" height="12.250049025499587" fill="#ff9900" stroke="black" stroke-width="1" value="7746" title="7,746"></rect></g><g><title>7,960</title><rect x="205" y="244.49048272720944" width="20" height="12.588483119413466" fill="#e9e71f" stroke="black" stroke-width="1" value="7960" title="7,960"></rect></g><g><title>10,229</title><rect x="205" y="228.3136493316717" width="20" height="16.17683339553773" fill="#109618" stroke="black" stroke-width="1" value="10229" title="10,229"></rect></g><g><title>10,118</title><rect x="205" y="212.3123588540052" width="20" height="16.001290477666515" fill="#3366cc" stroke="black" stroke-width="1" value="10118" title="10,118"></rect></g></g><g style="opacity: 1;"><g><title>24,954</title><rect x="230" y="260.53605430127595" width="20" height="39.463945698724075" fill="#dc3912" stroke="black" stroke-width="1" value="24954" title="24,954"></rect></g><g><title>11,555</title><rect x="230" y="242.26219469765502" width="20" height="18.27385960362093" fill="#ff9900" stroke="black" stroke-width="1" value="11555" title="11,555"></rect></g><g><title>11,071</title><rect x="230" y="224.75376547466175" width="20" height="17.508429222993275" fill="#e9e71f" stroke="black" stroke-width="1" value="11071" title="11,071"></rect></g><g><title>16,972</title><rect x="230" y="197.91309518537966" width="20" height="26.84067028928208" fill="#109618" stroke="black" stroke-width="1" value="16972" title="16,972"></rect></g><g><title>14,245</title><rect x="230" y="175.3850873919067" width="20" height="22.528007793472966" fill="#3366cc" stroke="black" stroke-width="1" value="14245" title="14,245"></rect></g></g><g style="opacity: 1;"><g><title>6,483</title><rect x="255" y="289.7473447156837" width="20" height="10.252655284316269" fill="#dc3912" stroke="black" stroke-width="1" value="6483" title="6,483"></rect></g><g><title>2,085</title><rect x="255" y="286.44998450161626" width="20" height="3.297360214067472" fill="#ff9900" stroke="black" stroke-width="1" value="2085" title="2,085"></rect></g><g><title>2,650</title><rect x="255" y="282.259095020907" width="20" height="4.190889480709257" fill="#e9e71f" stroke="black" stroke-width="1" value="2650" title="2,650"></rect></g><g><title>2,144</title><rect x="255" y="278.86842821085395" width="20" height="3.3906668100530744" fill="#109618" stroke="black" stroke-width="1" value="2144" title="2,144"></rect></g><g><title>1,841</title><rect x="255" y="275.95694612255744" width="20" height="2.9114820882965065" fill="#3366cc" stroke="black" stroke-width="1" value="1841" title="1,841"></rect></g></g><g style="opacity: 1;"><g><title>19,987</title><rect x="280" y="268.3912045090808" width="20" height="31.608795490919213" fill="#dc3912" stroke="black" stroke-width="1" value="19987" title="19,987"></rect></g><g><title>8,537</title><rect x="280" y="254.89021451028273" width="20" height="13.500989998798085" fill="#ff9900" stroke="black" stroke-width="1" value="8537" title="8,537"></rect></g><g><title>7,399</title><rect x="280" y="243.18893478659677" width="20" height="11.701279723685959" fill="#e9e71f" stroke="black" stroke-width="1" value="7399" title="7,399"></rect></g><g><title>9,962</title><rect x="280" y="227.4343532745871" width="20" height="15.754581512009667" fill="#109618" stroke="black" stroke-width="1" value="9962" title="9,962"></rect></g><g><title>8,585</title><rect x="280" y="213.85745282481767" width="20" height="13.576900449769424" fill="#3366cc" stroke="black" stroke-width="1" value="8585" title="8,585"></rect></g></g><g style="opacity: 1;"><g><title>20,577</title><rect x="305" y="267.45813854922477" width="20" height="32.54186145077524" fill="#dc3912" stroke="black" stroke-width="1" value="20577" title="20,577"></rect></g><g><title>7,862</title><rect x="305" y="255.0246392672111" width="20" height="12.433499282013653" fill="#ff9900" stroke="black" stroke-width="1" value="7862" title="7,862"></rect></g><g><title>9,894</title><rect x="305" y="239.37759756074416" width="20" height="15.647041706466938" fill="#e9e71f" stroke="black" stroke-width="1" value="9894" title="9,894"></rect></g><g><title>10,255</title><rect x="305" y="223.15964600426364" width="20" height="16.21795155648054" fill="#109618" stroke="black" stroke-width="1" value="10255" title="10,255"></rect></g><g><title>10,299</title><rect x="305" y="206.87210986772604" width="20" height="16.2875361365376" fill="#3366cc" stroke="black" stroke-width="1" value="10299" title="10,299"></rect></g></g><g style="opacity: 1;"><g><title>13,908</title><rect x="330" y="278.00494683105495" width="20" height="21.995053168945034" fill="#dc3912" stroke="black" stroke-width="1" value="13908" title="13,908"></rect></g><g><title>4,516</title><rect x="330" y="270.86303856883495" width="20" height="7.141908262220001" fill="#ff9900" stroke="black" stroke-width="1" value="4516" title="4,516"></rect></g><g><title>4,638</title><rect x="330" y="263.52819124372945" width="20" height="7.334847325105485" fill="#e9e71f" stroke="black" stroke-width="1" value="4638" title="4,638"></rect></g><g><title>4,939</title><rect x="330" y="255.71732213232454" width="20" height="7.810869111404913" fill="#109618" stroke="black" stroke-width="1" value="4939" title="4,939"></rect></g><g><title>4,420</title><rect x="330" y="248.7272347720472" width="20" height="6.990087360277327" fill="#3366cc" stroke="black" stroke-width="1" value="4420" title="4,420"></rect></g></g><g style="opacity: 1;"><g><title>63,487</title><rect x="355" y="199.59735831630618" width="20" height="100.40264168369382" fill="#dc3912" stroke="black" stroke-width="1" value="63487" title="63,487"></rect></g><g><title>22,595</title><rect x="355" y="163.86409498927765" width="20" height="35.73326332702855" fill="#ff9900" stroke="black" stroke-width="1" value="22595" title="22,595"></rect></g><g><title>20,265</title><rect x="355" y="131.8156514698161" width="20" height="32.04844351946154" fill="#e9e71f" stroke="black" stroke-width="1" value="20265" title="20,265"></rect></g><g><title>27,645</title><rect x="355" y="88.0959761135114" width="20" height="43.719675356304684" fill="#109618" stroke="black" stroke-width="1" value="27645" title="27,645"></rect></g><g><title>24,089</title><rect x="355" y="49.999999999999964" width="20" height="38.09597611351143" fill="#3366cc" stroke="black" stroke-width="1" value="24089" title="24,089"></rect></g></g><g style="opacity: 1;"><g><title>16,533</title><rect x="380" y="273.85359404355995" width="20" height="26.146405956440056" fill="#dc3912" stroke="black" stroke-width="1" value="16533" title="16,533"></rect></g><g><title>5,280</title><rect x="380" y="265.5034444367128" width="20" height="8.350149606847124" fill="#ff9900" stroke="black" stroke-width="1" value="5280" title="5,280"></rect></g><g><title>5,952</title><rect x="380" y="256.09054851626695" width="20" height="9.412895920445848" fill="#e9e71f" stroke="black" stroke-width="1" value="5952" title="5,952"></rect></g><g><title>5,596</title><rect x="380" y="247.24065510719186" width="20" height="8.849893409075095" fill="#109618" stroke="black" stroke-width="1" value="5596" title="5,596"></rect></g><g><title>5,046</title><rect x="380" y="239.26056894883" width="20" height="7.9800861583618525" fill="#3366cc" stroke="black" stroke-width="1" value="5046" title="5,046"></rect></g></g><g><g><title>38</title><rect x="405" y="299.93990422631435" width="20" height="0.06009577368564217" fill="#dc3912" stroke="black" stroke-width="1" value="38" title="38"></rect></g><g><title>9</title><rect x="405" y="299.92567101675724" width="20" height="0.014233209557125778" fill="#ff9900" stroke="black" stroke-width="1" value="9" title="9"></rect></g><g><title>0</title><rect x="405" y="299.92567101675724" width="20" height="0" fill="#e9e71f" stroke="black" stroke-width="1" value="0" title="0"></rect></g><g><title>0</title><rect x="405" y="299.92567101675724" width="20" height="0" fill="#109618" stroke="black" stroke-width="1" value="0" title="0"></rect></g><g><title>0</title><rect x="405" y="299.92567101675724" width="20" height="0" fill="#3366cc" stroke="black" stroke-width="1" value="0" title="0"></rect></g></g><g><g><title>97</title><rect x="430" y="299.84659763032874" width="20" height="0.1534023696712445" fill="#dc3912" stroke="black" stroke-width="1" value="97" title="97"></rect></g><g><title>25</title><rect x="430" y="299.8070609371145" width="20" height="0.03953669321423827" fill="#ff9900" stroke="black" stroke-width="1" value="25" title="25"></rect></g><g><title>5</title><rect x="430" y="299.79915359847166" width="20" height="0.007907338642847655" fill="#e9e71f" stroke="black" stroke-width="1" value="5" title="5"></rect></g><g><title>0</title><rect x="430" y="299.79915359847166" width="20" height="0" fill="#109618" stroke="black" stroke-width="1" value="0" title="0"></rect></g><g><title>0</title><rect x="430" y="299.79915359847166" width="20" height="0" fill="#3366cc" stroke="black" stroke-width="1" value="0" title="0"></rect></g></g><g><g><title>68</title><rect x="455" y="299.89246019445727" width="20" height="0.1075398055427281" fill="#dc3912" stroke="black" stroke-width="1" value="68" title="68"></rect></g><g><title>34</title><rect x="455" y="299.8386902916859" width="20" height="0.05376990277136405" fill="#ff9900" stroke="black" stroke-width="1" value="34" title="34"></rect></g><g><title>3</title><rect x="455" y="299.8339458885002" width="20" height="0.004744403185708593" fill="#e9e71f" stroke="black" stroke-width="1" value="3" title="3"></rect></g><g><title>0</title><rect x="455" y="299.8339458885002" width="20" height="0" fill="#109618" stroke="black" stroke-width="1" value="0" title="0"></rect></g><g><title>0</title><rect x="455" y="299.8339458885002" width="20" height="0" fill="#3366cc" stroke="black" stroke-width="1" value="0" title="0"></rect></g></g><g style="opacity: 1;"><g><title>1,708</title><rect x="480" y="297.2988531196032" width="20" height="2.7011468803967587" fill="#dc3912" stroke="black" stroke-width="1" value="1708" title="1,708"></rect></g><g><title>818</title><rect x="480" y="296.00521251763337" width="20" height="1.2936406019698763" fill="#ff9900" stroke="black" stroke-width="1" value="818" title="818"></rect></g><g><title>1,062</title><rect x="480" y="294.3256937898925" width="20" height="1.6795187277408419" fill="#e9e71f" stroke="black" stroke-width="1" value="1062" title="1,062"></rect></g><g><title>1,188</title><rect x="480" y="292.44691012835193" width="20" height="1.8787836615406026" fill="#109618" stroke="black" stroke-width="1" value="1188" title="1,188"></rect></g><g><title>1,382</title><rect x="480" y="290.26132172746884" width="20" height="2.1855884008830917" fill="#3366cc" stroke="black" stroke-width="1" value="1382" title="1,382"></rect></g></g><g><g><title>41</title><rect x="505" y="299.93515982312863" width="20" height="0.06484017687135077" fill="#dc3912" stroke="black" stroke-width="1" value="41" title="41"></rect></g><g><title>6</title><rect x="505" y="299.92567101675724" width="20" height="0.009488806371417186" fill="#ff9900" stroke="black" stroke-width="1" value="6" title="6"></rect></g><g><title>0</title><rect x="505" y="299.92567101675724" width="20" height="0" fill="#e9e71f" stroke="black" stroke-width="1" value="0" title="0"></rect></g><g><title>0</title><rect x="505" y="299.92567101675724" width="20" height="0" fill="#109618" stroke="black" stroke-width="1" value="0" title="0"></rect></g><g><title>0</title><rect x="505" y="299.92567101675724" width="20" height="0" fill="#3366cc" stroke="black" stroke-width="1" value="0" title="0"></rect></g></g></g><g><line x1="100" y1="300" x2="100" y2="50" stroke="black" stroke-width="1"></line><line x1="100" y1="300" x2="90" y2="300" stroke="black" stroke-width="1"></line><text x="85" y="304" text-anchor="end" font-family="Helvetica" font-weight="100" font-size="12">0</text><line x1="100" y1="295" x2="95" y2="295" stroke="black" stroke-width="1"></line><line x1="100" y1="290" x2="95" y2="290" stroke="black" stroke-width="1"></line><line x1="100" y1="285" x2="95" y2="285" stroke="black" stroke-width="1"></line><line x1="100" y1="280" x2="95" y2="280" stroke="black" stroke-width="1"></line><line x1="100" y1="275" x2="90" y2="275" stroke="black" stroke-width="1"></line><text x="85" y="279" text-anchor="end" font-family="Helvetica" font-weight="100" font-size="12">16,000</text><line x1="100" y1="270" x2="95" y2="270" stroke="black" stroke-width="1"></line><line x1="100" y1="265" x2="95" y2="265" stroke="black" stroke-width="1"></line><line x1="100" y1="260" x2="95" y2="260" stroke="black" stroke-width="1"></line><line x1="100" y1="255" x2="95" y2="255" stroke="black" stroke-width="1"></line><line x1="100" y1="250" x2="90" y2="250" stroke="black" stroke-width="1"></line><text x="85" y="254" text-anchor="end" font-family="Helvetica" font-weight="100" font-size="12">32,000</text><line x1="100" y1="245" x2="95" y2="245" stroke="black" stroke-width="1"></line><line x1="100" y1="240" x2="95" y2="240" stroke="black" stroke-width="1"></line><line x1="100" y1="235" x2="95" y2="235" stroke="black" stroke-width="1"></line><line x1="100" y1="230" x2="95" y2="230" stroke="black" stroke-width="1"></line><line x1="100" y1="225" x2="90" y2="225" stroke="black" stroke-width="1"></line><text x="85" y="229" text-anchor="end" font-family="Helvetica" font-weight="100" font-size="12">48,000</text><line x1="100" y1="220" x2="95" y2="220" stroke="black" stroke-width="1"></line><line x1="100" y1="215" x2="95" y2="215" stroke="black" stroke-width="1"></line><line x1="100" y1="210" x2="95" y2="210" stroke="black" stroke-width="1"></line><line x1="100" y1="205" x2="95" y2="205" stroke="black" stroke-width="1"></line><line x1="100" y1="200" x2="90" y2="200" stroke="black" stroke-width="1"></line><text x="85" y="204" text-anchor="end" font-family="Helvetica" font-weight="100" font-size="12">64,000</text><line x1="100" y1="195" x2="95" y2="195" stroke="black" stroke-width="1"></line><line x1="100" y1="190" x2="95" y2="190" stroke="black" stroke-width="1"></line><line x1="100" y1="185" x2="95" y2="185" stroke="black" stroke-width="1"></line><line x1="100" y1="180" x2="95" y2="180" stroke="black" stroke-width="1"></line><line x1="100" y1="175" x2="90" y2="175" stroke="black" stroke-width="1"></line><text x="85" y="179" text-anchor="end" font-family="Helvetica" font-weight="100" font-size="12">80,000</text><line x1="100" y1="170" x2="95" y2="170" stroke="black" stroke-width="1"></line><line x1="100" y1="165" x2="95" y2="165" stroke="black" stroke-width="1"></line><line x1="100" y1="160" x2="95" y2="160" stroke="black" stroke-width="1"></line><line x1="100" y1="155" x2="95" y2="155" stroke="black" stroke-width="1"></line><line x1="100" y1="150" x2="90" y2="150" stroke="black" stroke-width="1"></line><text x="85" y="154" text-anchor="end" font-family="Helvetica" font-weight="100" font-size="12">96,000</text><line x1="100" y1="145" x2="95" y2="145" stroke="black" stroke-width="1"></line><line x1="100" y1="140" x2="95" y2="140" stroke="black" stroke-width="1"></line><line x1="100" y1="135" x2="95" y2="135" stroke="black" stroke-width="1"></line><line x1="100" y1="130" x2="95" y2="130" stroke="black" stroke-width="1"></line><line x1="100" y1="125" x2="90" y2="125" stroke="black" stroke-width="1"></line><text x="85" y="129" text-anchor="end" font-family="Helvetica" font-weight="100" font-size="12">112,000</text><line x1="100" y1="120" x2="95" y2="120" stroke="black" stroke-width="1"></line><line x1="100" y1="115" x2="95" y2="115" stroke="black" stroke-width="1"></line><line x1="100" y1="110" x2="95" y2="110" stroke="black" stroke-width="1"></line><line x1="100" y1="105" x2="95" y2="105" stroke="black" stroke-width="1"></line><line x1="100" y1="100" x2="90" y2="100" stroke="black" stroke-width="1"></line><text x="85" y="104" text-anchor="end" font-family="Helvetica" font-weight="100" font-size="12">128,000</text><line x1="100" y1="95" x2="95" y2="95" stroke="black" stroke-width="1"></line><line x1="100" y1="90" x2="95" y2="90" stroke="black" stroke-width="1"></line><line x1="100" y1="85" x2="95" y2="85" stroke="black" stroke-width="1"></line><line x1="100" y1="80" x2="95" y2="80" stroke="black" stroke-width="1"></line><line x1="100" y1="75" x2="90" y2="75" stroke="black" stroke-width="1"></line><text x="85" y="79" text-anchor="end" font-family="Helvetica" font-weight="100" font-size="12">144,000</text><line x1="100" y1="70" x2="95" y2="70" stroke="black" stroke-width="1"></line><line x1="100" y1="65" x2="95" y2="65" stroke="black" stroke-width="1"></line><line x1="100" y1="60" x2="95" y2="60" stroke="black" stroke-width="1"></line><line x1="100" y1="55" x2="95" y2="55" stroke="black" stroke-width="1"></line><line x1="100" y1="50" x2="90" y2="50" stroke="black" stroke-width="1"></line><text x="85" y="54" text-anchor="end" font-family="Helvetica" font-weight="100" font-size="12">160,000</text></g><g><line x1="100" y1="300" x2="525" y2="300" stroke="black" stroke-width="1"></line><line x1="115" y1="300" x2="115" y2="310" stroke="black" stroke-width="1"></line><text x="115" y="322" text-anchor="end" transform="rotate(-30,115,322)" font-family="Helvetica" font-weight="100" font-size="12">RefSeq</text><line x1="140" y1="300" x2="140" y2="310" stroke="black" stroke-width="1"></line><text x="140" y="322" text-anchor="end" transform="rotate(-30,140,322)" font-family="Helvetica" font-weight="100" font-size="12">IMG</text><line x1="165" y1="300" x2="165" y2="310" stroke="black" stroke-width="1"></line><text x="165" y="322" text-anchor="end" transform="rotate(-30,165,322)" font-family="Helvetica" font-weight="100" font-size="12">TrEMBL</text><line x1="190" y1="300" x2="190" y2="310" stroke="black" stroke-width="1"></line><text x="190" y="322" text-anchor="end" transform="rotate(-30,190,322)" font-family="Helvetica" font-weight="100" font-size="12">Subsystems</text><line x1="215" y1="300" x2="215" y2="310" stroke="black" stroke-width="1"></line><text x="215" y="322" text-anchor="end" transform="rotate(-30,215,322)" font-family="Helvetica" font-weight="100" font-size="12">KEGG</text><line x1="240" y1="300" x2="240" y2="310" stroke="black" stroke-width="1"></line><text x="240" y="322" text-anchor="end" transform="rotate(-30,240,322)" font-family="Helvetica" font-weight="100" font-size="12">GenBank</text><line x1="265" y1="300" x2="265" y2="310" stroke="black" stroke-width="1"></line><text x="265" y="322" text-anchor="end" transform="rotate(-30,265,322)" font-family="Helvetica" font-weight="100" font-size="12">SwissProt</text><line x1="290" y1="300" x2="290" y2="310" stroke="black" stroke-width="1"></line><text x="290" y="322" text-anchor="end" transform="rotate(-30,290,322)" font-family="Helvetica" font-weight="100" font-size="12">PATRIC</text><line x1="315" y1="300" x2="315" y2="310" stroke="black" stroke-width="1"></line><text x="315" y="322" text-anchor="end" transform="rotate(-30,315,322)" font-family="Helvetica" font-weight="100" font-size="12">eggNOG</text><line x1="340" y1="300" x2="340" y2="310" stroke="black" stroke-width="1"></line><text x="340" y="322" text-anchor="end" transform="rotate(-30,340,322)" font-family="Helvetica" font-weight="100" font-size="12">KO</text><line x1="365" y1="300" x2="365" y2="310" stroke="black" stroke-width="1"></line><text x="365" y="322" text-anchor="end" transform="rotate(-30,365,322)" font-family="Helvetica" font-weight="100" font-size="12">GO</text><line x1="390" y1="300" x2="390" y2="310" stroke="black" stroke-width="1"></line><text x="390" y="322" text-anchor="end" transform="rotate(-30,390,322)" font-family="Helvetica" font-weight="100" font-size="12">COG</text><line x1="415" y1="300" x2="415" y2="310" stroke="black" stroke-width="1"></line><text x="415" y="322" text-anchor="end" transform="rotate(-30,415,322)" font-family="Helvetica" font-weight="100" font-size="12">RDP</text><line x1="440" y1="300" x2="440" y2="310" stroke="black" stroke-width="1"></line><text x="440" y="322" text-anchor="end" transform="rotate(-30,440,322)" font-family="Helvetica" font-weight="100" font-size="12">LSU</text><line x1="465" y1="300" x2="465" y2="310" stroke="black" stroke-width="1"></line><text x="465" y="322" text-anchor="end" transform="rotate(-30,465,322)" font-family="Helvetica" font-weight="100" font-size="12">SSU</text><line x1="490" y1="300" x2="490" y2="310" stroke="black" stroke-width="1"></line><text x="490" y="322" text-anchor="end" transform="rotate(-30,490,322)" font-family="Helvetica" font-weight="100" font-size="12">NOG</text><line x1="515" y1="300" x2="515" y2="310" stroke="black" stroke-width="1"></line><text x="515" y="322" text-anchor="end" transform="rotate(-30,515,322)" font-family="Helvetica" font-weight="100" font-size="12">Greengenes</text></g><g><rect x="650" y="50" width="15" height="15" stroke="white" stroke-width="0" fill="#dc3912"></rect><text x="680" y="63" font-size="15" font-weight="normal" font-family="Helvetica" style="cursor: default; font-weight: normal;">e^-30 &amp; less</text><rect x="650" y="75" width="15" height="15" stroke="white" stroke-width="0" fill="#ff9900"></rect><text x="680" y="88" font-size="15" font-weight="normal" font-family="Helvetica" style="cursor: default; font-weight: normal;">e^-20 to e^-30</text><rect x="650" y="100" width="15" height="15" stroke="white" stroke-width="0" fill="#e9e71f"></rect><text x="680" y="113" font-size="15" font-weight="normal" font-family="Helvetica" style="cursor: default; font-weight: normal;">e^-10 to e^-20</text><rect x="650" y="125" width="15" height="15" stroke="white" stroke-width="0" fill="#109618"></rect><text x="680" y="138" font-size="15" font-weight="normal" font-family="Helvetica" style="cursor: default; font-weight: normal;">e^-5 to e^-10</text><rect x="650" y="150" width="15" height="15" stroke="white" stroke-width="0" fill="#3366cc"></rect><text x="680" y="163" font-size="15" font-weight="normal" font-family="Helvetica" style="cursor: default; font-weight: normal;">e^-3 to e^-5</text></g></svg>