<svg version="1.1" xmlns="http://www.w3.org/2000/svg" viewBox="0 0 800 400"><g><path d="M160,150  L160,0  A150,150 0 0,1 269,252 L160,150  A0,0 0 0,0 160,150" stroke="white" stroke-width="1" fill="#3366cc" value="22956" onclick="if(confirm(&quot;Download the annotated sequences for this segment?&quot;)){window.open(&quot;https://api-ui.mg-rast.org/annotation/sequence/mgm4441593.3?browser=1&amp;filter_level=phylum&amp;type=organism&amp;filter=Cyanobacteria&quot;);}" style="opacity: 1;"></path><path d="M160,150  L269,252  A150,150 0 0,1 69,269 L160,150  A0,0 0 0,0 160,150" stroke="white" stroke-width="1" fill="#dc3912" value="14404" onclick="if(confirm(&quot;Download the annotated sequences for this segment?&quot;)){window.open(&quot;https://api-ui.mg-rast.org/annotation/sequence/mgm4441593.3?browser=1&amp;filter_level=phylum&amp;type=organism&amp;filter=unclassified%20(derived%20from%20Viruses)&quot;);}" style="opacity: 1;"></path><path d="M160,150  L69,269  A150,150 0 0,1 15,110 L160,150  A0,0 0 0,0 160,150" stroke="white" stroke-width="1" fill="#ff9900" value="11798" onclick="if(confirm(&quot;Download the annotated sequences for this segment?&quot;)){window.open(&quot;https://api-ui.mg-rast.org/annotation/sequence/mgm4441593.3?browser=1&amp;filter_level=phylum&amp;type=organism&amp;filter=Proteobacteria&quot;);}" style="opacity: 1;"></path><path d="M160,150  L15,110  A150,150 0 0,1 35,66 L160,150  A0,0 0 0,0 160,150" stroke="white" stroke-width="1" fill="#109618" value="3188" onclick="if(confirm(&quot;Download the annotated sequences for this segment?&quot;)){window.open(&quot;https://api-ui.mg-rast.org/annotation/sequence/mgm4441593.3?browser=1&amp;filter_level=phylum&amp;type=organism&amp;filter=Bacteroidetes&quot;);}" style="opacity: 1;"></path><path d="M160,150  L35,66  A150,150 0 0,1 52,45 L160,150  A0,0 0 0,0 160,150" stroke="white" stroke-width="1" fill="#990099" value="1782" onclick="if(confirm(&quot;Download the annotated sequences for this segment?&quot;)){window.open(&quot;https://api-ui.mg-rast.org/annotation/sequence/mgm4441593.3?browser=1&amp;filter_level=phylum&amp;type=organism&amp;filter=unclassified%20(derived%20from%20Eukaryota)&quot;);}" style="opacity: 1;"></path><path d="M160,150  L52,45  A150,150 0 0,1 60,37 L160,150  A0,0 0 0,0 160,150" stroke="white" stroke-width="1" fill="#0099c6" value="716" onclick="if(confirm(&quot;Download the annotated sequences for this segment?&quot;)){window.open(&quot;https://api-ui.mg-rast.org/annotation/sequence/mgm4441593.3?browser=1&amp;filter_level=phylum&amp;type=organism&amp;filter=Chordata&quot;);}" style="opacity: 1;"></path><path d="M160,150  L60,37  A150,150 0 0,1 68,31 L160,150  A0,0 0 0,0 160,150" stroke="white" stroke-width="1" fill="#dd4477" value="650" onclick="if(confirm(&quot;Download the annotated sequences for this segment?&quot;)){window.open(&quot;https://api-ui.mg-rast.org/annotation/sequence/mgm4441593.3?browser=1&amp;filter_level=phylum&amp;type=organism&amp;filter=unclassified%20(derived%20from%20unclassified%20sequences)&quot;);}" style="opacity: 1;"></path><path d="M160,150  L68,31  A150,150 0 0,1 76,25 L160,150  A0,0 0 0,0 160,150" stroke="white" stroke-width="1" fill="#66aa00" value="642" onclick="if(confirm(&quot;Download the annotated sequences for this segment?&quot;)){window.open(&quot;https://api-ui.mg-rast.org/annotation/sequence/mgm4441593.3?browser=1&amp;filter_level=phylum&amp;type=organism&amp;filter=Chlorophyta&quot;);}" style="opacity: 1;"></path><path d="M160,150  L76,25  A150,150 0 0,1 82,21 L160,150  A0,0 0 0,0 160,150" stroke="white" stroke-width="1" fill="#b82e2e" value="506" onclick="if(confirm(&quot;Download the annotated sequences for this segment?&quot;)){window.open(&quot;https://api-ui.mg-rast.org/annotation/sequence/mgm4441593.3?browser=1&amp;filter_level=phylum&amp;type=organism&amp;filter=unclassified%20(derived%20from%20Bacteria)&quot;);}" style="opacity: 1;"></path><path d="M160,150  L82,21  A150,150 0 0,1 89,17 L160,150  A0,0 0 0,0 160,150" stroke="white" stroke-width="1" fill="#316395" value="496" onclick="if(confirm(&quot;Download the annotated sequences for this segment?&quot;)){window.open(&quot;https://api-ui.mg-rast.org/annotation/sequence/mgm4441593.3?browser=1&amp;filter_level=phylum&amp;type=organism&amp;filter=Streptophyta&quot;);}" style="opacity: 1;"></path><path d="M160,150  L89,17  A150,150 0 0,1 95,14 L160,150  A0,0 0 0,0 160,150" stroke="white" stroke-width="1" fill="#994499" value="463" onclick="if(confirm(&quot;Download the annotated sequences for this segment?&quot;)){window.open(&quot;https://api-ui.mg-rast.org/annotation/sequence/mgm4441593.3?browser=1&amp;filter_level=phylum&amp;type=organism&amp;filter=Firmicutes&quot;);}" style="opacity: 1;"></path><path d="M160,150  L95,14  A150,150 0 0,1 101,11 L160,150  A0,0 0 0,0 160,150" stroke="white" stroke-width="1" fill="#22aa99" value="437" onclick="if(confirm(&quot;Download the annotated sequences for this segment?&quot;)){window.open(&quot;https://api-ui.mg-rast.org/annotation/sequence/mgm4441593.3?browser=1&amp;filter_level=phylum&amp;type=organism&amp;filter=Verrucomicrobia&quot;);}" style="opacity: 1;"></path><path d="M160,150  L101,11  A150,150 0 0,1 107,9 L160,150  A0,0 0 0,0 160,150" stroke="white" stroke-width="1" fill="#aaaa11" value="421" onclick="if(confirm(&quot;Download the annotated sequences for this segment?&quot;)){window.open(&quot;https://api-ui.mg-rast.org/annotation/sequence/mgm4441593.3?browser=1&amp;filter_level=phylum&amp;type=organism&amp;filter=Actinobacteria&quot;);}" style="opacity: 1;"></path><path d="M160,150  L107,9  A150,150 0 0,1 113,7 L160,150  A0,0 0 0,0 160,150" stroke="white" stroke-width="1" fill="#6633cc" value="419" onclick="if(confirm(&quot;Download the annotated sequences for this segment?&quot;)){window.open(&quot;https://api-ui.mg-rast.org/annotation/sequence/mgm4441593.3?browser=1&amp;filter_level=phylum&amp;type=organism&amp;filter=unclassified%20(derived%20from%20Archaea)&quot;);}" style="opacity: 1;"></path><path d="M160,150  L113,7  A150,150 0 0,1 118,5 L160,150  A0,0 0 0,0 160,150" stroke="white" stroke-width="1" fill="#e67300" value="375" onclick="if(confirm(&quot;Download the annotated sequences for this segment?&quot;)){window.open(&quot;https://api-ui.mg-rast.org/annotation/sequence/mgm4441593.3?browser=1&amp;filter_level=phylum&amp;type=organism&amp;filter=Arthropoda&quot;);}"></path><path d="M160,150  L118,5  A150,150 0 0,1 124,4 L160,150  A0,0 0 0,0 160,150" stroke="white" stroke-width="1" fill="#8b0707" value="363" onclick="if(confirm(&quot;Download the annotated sequences for this segment?&quot;)){window.open(&quot;https://api-ui.mg-rast.org/annotation/sequence/mgm4441593.3?browser=1&amp;filter_level=phylum&amp;type=organism&amp;filter=Ascomycota&quot;);}"></path><path d="M160,150  L124,4  A150,150 0 0,1 129,3 L160,150  A0,0 0 0,0 160,150" stroke="white" stroke-width="1" fill="#651067" value="354" onclick="if(confirm(&quot;Download the annotated sequences for this segment?&quot;)){window.open(&quot;https://api-ui.mg-rast.org/annotation/sequence/mgm4441593.3?browser=1&amp;filter_level=phylum&amp;type=organism&amp;filter=Bacillariophyta&quot;);}"></path><path d="M160,150  L129,3  A150,150 0 0,1 134,2 L160,150  A0,0 0 0,0 160,150" stroke="white" stroke-width="1" fill="#329262" value="353" onclick="if(confirm(&quot;Download the annotated sequences for this segment?&quot;)){window.open(&quot;https://api-ui.mg-rast.org/annotation/sequence/mgm4441593.3?browser=1&amp;filter_level=phylum&amp;type=organism&amp;filter=Euryarchaeota&quot;);}"></path><path d="M160,150  L134,2  A150,150 0 0,1 139,1 L160,150  A0,0 0 0,0 160,150" stroke="white" stroke-width="1" fill="#5574a6" value="340" onclick="if(confirm(&quot;Download the annotated sequences for this segment?&quot;)){window.open(&quot;https://api-ui.mg-rast.org/annotation/sequence/mgm4441593.3?browser=1&amp;filter_level=phylum&amp;type=organism&amp;filter=Planctomycetes&quot;);}"></path><path d="M160,150  L139,1  A150,150 0 0,1 144,0 L160,150  A0,0 0 0,0 160,150" stroke="white" stroke-width="1" fill="#3b3eac" value="312" onclick="if(confirm(&quot;Download the annotated sequences for this segment?&quot;)){window.open(&quot;https://api-ui.mg-rast.org/annotation/sequence/mgm4441593.3?browser=1&amp;filter_level=phylum&amp;type=organism&amp;filter=Phaeophyceae&quot;);}"></path><path d="M160,150  L144,0  A150,150 0 0,1 146,0 L160,150  A0,0 0 0,0 160,150" stroke="white" stroke-width="1" fill="#b77322" value="162" onclick="if(confirm(&quot;Download the annotated sequences for this segment?&quot;)){window.open(&quot;https://api-ui.mg-rast.org/annotation/sequence/mgm4441593.3?browser=1&amp;filter_level=phylum&amp;type=organism&amp;filter=Apicomplexa&quot;);}"></path><path d="M160,150  L146,0  A150,150 0 0,1 148,0 L160,150  A0,0 0 0,0 160,150" stroke="white" stroke-width="1" fill="#16d620" value="85" onclick="if(confirm(&quot;Download the annotated sequences for this segment?&quot;)){window.open(&quot;https://api-ui.mg-rast.org/annotation/sequence/mgm4441593.3?browser=1&amp;filter_level=phylum&amp;type=organism&amp;filter=Lentisphaerae&quot;);}"></path><path d="M160,150  L148,0  A150,150 0 0,1 149,0 L160,150  A0,0 0 0,0 160,150" stroke="white" stroke-width="1" fill="#b91383" value="81" onclick="if(confirm(&quot;Download the annotated sequences for this segment?&quot;)){window.open(&quot;https://api-ui.mg-rast.org/annotation/sequence/mgm4441593.3?browser=1&amp;filter_level=phylum&amp;type=organism&amp;filter=Nematoda&quot;);}"></path><path d="M160,150  L149,0  A150,150 0 0,1 150,0 L160,150  A0,0 0 0,0 160,150" stroke="white" stroke-width="1" fill="#f4359e" value="77" onclick="if(confirm(&quot;Download the annotated sequences for this segment?&quot;)){window.open(&quot;https://api-ui.mg-rast.org/annotation/sequence/mgm4441593.3?browser=1&amp;filter_level=phylum&amp;type=organism&amp;filter=Chloroflexi&quot;);}"></path><path d="M160,150  L150,0  A150,150 0 0,1 151,0 L160,150  A0,0 0 0,0 160,150" stroke="white" stroke-width="1" fill="#9c5935" value="74" onclick="if(confirm(&quot;Download the annotated sequences for this segment?&quot;)){window.open(&quot;https://api-ui.mg-rast.org/annotation/sequence/mgm4441593.3?browser=1&amp;filter_level=phylum&amp;type=organism&amp;filter=Cnidaria&quot;);}"></path><path d="M160,150  L151,0  A150,150 0 0,1 152,0 L160,150  A0,0 0 0,0 160,150" stroke="white" stroke-width="1" fill="#a9c413" value="66" onclick="if(confirm(&quot;Download the annotated sequences for this segment?&quot;)){window.open(&quot;https://api-ui.mg-rast.org/annotation/sequence/mgm4441593.3?browser=1&amp;filter_level=phylum&amp;type=organism&amp;filter=Basidiomycota&quot;);}"></path><path d="M160,150  L152,0  A150,150 0 0,1 153,0 L160,150  A0,0 0 0,0 160,150" stroke="white" stroke-width="1" fill="#2a778d" value="51" onclick="if(confirm(&quot;Download the annotated sequences for this segment?&quot;)){window.open(&quot;https://api-ui.mg-rast.org/annotation/sequence/mgm4441593.3?browser=1&amp;filter_level=phylum&amp;type=organism&amp;filter=Echinodermata&quot;);}"></path><path d="M160,150  L153,0  A150,150 0 0,1 154,0 L160,150  A0,0 0 0,0 160,150" stroke="white" stroke-width="1" fill="#668d1c" value="48" onclick="if(confirm(&quot;Download the annotated sequences for this segment?&quot;)){window.open(&quot;https://api-ui.mg-rast.org/annotation/sequence/mgm4441593.3?browser=1&amp;filter_level=phylum&amp;type=organism&amp;filter=Chlorobi&quot;);}"></path><path d="M160,150  L154,0  A150,150 0 0,1 154,0 L160,150  A0,0 0 0,0 160,150" stroke="white" stroke-width="1" fill="#bea413" value="43" onclick="if(confirm(&quot;Download the annotated sequences for this segment?&quot;)){window.open(&quot;https://api-ui.mg-rast.org/annotation/sequence/mgm4441593.3?browser=1&amp;filter_level=phylum&amp;type=organism&amp;filter=Deinococcus-Thermus&quot;);}"></path><path d="M160,150  L154,0  A150,150 0 0,1 155,0 L160,150  A0,0 0 0,0 160,150" stroke="white" stroke-width="1" fill="#0c5922" value="41" onclick="if(confirm(&quot;Download the annotated sequences for this segment?&quot;)){window.open(&quot;https://api-ui.mg-rast.org/annotation/sequence/mgm4441593.3?browser=1&amp;filter_level=phylum&amp;type=organism&amp;filter=Hemichordata&quot;);}"></path><path d="M160,150  L155,0  A150,150 0 0,1 156,0 L160,150  A0,0 0 0,0 160,150" stroke="white" stroke-width="1" fill="#743411" value="37" onclick="if(confirm(&quot;Download the annotated sequences for this segment?&quot;)){window.open(&quot;https://api-ui.mg-rast.org/annotation/sequence/mgm4441593.3?browser=1&amp;filter_level=phylum&amp;type=organism&amp;filter=Spirochaetes&quot;);}"></path><path d="M160,150  L156,0  A150,150 0 0,1 156,0 L160,150  A0,0 0 0,0 160,150" stroke="white" stroke-width="1" fill="#5386ec" value="36" onclick="if(confirm(&quot;Download the annotated sequences for this segment?&quot;)){window.open(&quot;https://api-ui.mg-rast.org/annotation/sequence/mgm4441593.3?browser=1&amp;filter_level=phylum&amp;type=organism&amp;filter=Acidobacteria&quot;);}"></path><path d="M160,150  L156,0  A150,150 0 0,1 157,0 L160,150  A0,0 0 0,0 160,150" stroke="white" stroke-width="1" fill="#fc5932" value="32" onclick="if(confirm(&quot;Download the annotated sequences for this segment?&quot;)){window.open(&quot;https://api-ui.mg-rast.org/annotation/sequence/mgm4441593.3?browser=1&amp;filter_level=phylum&amp;type=organism&amp;filter=Chlamydiae&quot;);}"></path><path d="M160,150  L157,0  A150,150 0 0,1 157,0 L160,150  A0,0 0 0,0 160,150" stroke="white" stroke-width="1" fill="#ffb920" value="23" onclick="if(confirm(&quot;Download the annotated sequences for this segment?&quot;)){window.open(&quot;https://api-ui.mg-rast.org/annotation/sequence/mgm4441593.3?browser=1&amp;filter_level=phylum&amp;type=organism&amp;filter=Crenarchaeota&quot;);}"></path></g><g><rect x="400" y="50" width="15" height="15" stroke="white" stroke-width="0" fill="#3366cc"></rect><text x="430" y="63" font-size="15" font-weight="normal" font-family="Helvetica" style="cursor: default; font-weight: normal;">Cyanobacteria - 22,956 (37.03%)</text><rect x="400" y="75" width="15" height="15" stroke="white" stroke-width="0" fill="#dc3912"></rect><text x="430" y="88" font-size="15" font-weight="normal" font-family="Helvetica" style="cursor: default; font-weight: normal;">unclassified (derived from Viruses) - 14,404 (23.23%)</text><rect x="400" y="100" width="15" height="15" stroke="white" stroke-width="0" fill="#ff9900"></rect><text x="430" y="113" font-size="15" font-weight="normal" font-family="Helvetica" style="cursor: default; font-weight: normal;">Proteobacteria - 11,798 (19.03%)</text><rect x="400" y="125" width="15" height="15" stroke="white" stroke-width="0" fill="#109618"></rect><text x="430" y="138" font-size="15" font-weight="normal" font-family="Helvetica" style="cursor: default; font-weight: normal;">Bacteroidetes - 3,188 (5.14%)</text><rect x="400" y="150" width="15" height="15" stroke="white" stroke-width="0" fill="#990099"></rect><text x="430" y="163" font-size="15" font-weight="normal" font-family="Helvetica" style="cursor: default; font-weight: normal;">unclassified (derived from Eukaryota) - 1,782 (2.87%)</text><rect x="400" y="175" width="15" height="15" stroke="white" stroke-width="0" fill="#0099c6"></rect><text x="430" y="188" font-size="15" font-weight="normal" font-family="Helvetica" style="cursor: default; font-weight: normal;">Chordata - 716 (1.15%)</text><rect x="400" y="200" width="15" height="15" stroke="white" stroke-width="0" fill="#dd4477"></rect><text x="430" y="213" font-size="15" font-weight="normal" font-family="Helvetica" style="cursor: default; font-weight: normal;">unclassified (derived from unclassified sequences) - 650 (1.05%)</text><rect x="400" y="225" width="15" height="15" stroke="white" stroke-width="0" fill="#66aa00"></rect><text x="430" y="238" font-size="15" font-weight="normal" font-family="Helvetica" style="cursor: default; font-weight: normal;">Chlorophyta - 642 (1.04%)</text><rect x="400" y="250" width="15" height="15" stroke="white" stroke-width="0" fill="#b82e2e"></rect><text x="430" y="263" font-size="15" font-weight="normal" font-family="Helvetica" style="cursor: default; font-weight: normal;">unclassified (derived from Bacteria) - 506 (0.82%)</text><rect x="400" y="275" width="15" height="15" stroke="white" stroke-width="0" fill="#316395"></rect><text x="430" y="288" font-size="15" font-weight="normal" font-family="Helvetica" style="cursor: default; font-weight: normal;">Streptophyta - 496 (0.80%)</text><rect x="400" y="300" width="15" height="15" stroke="white" stroke-width="0" fill="#994499"></rect><text x="430" y="313" font-size="15" font-weight="normal" font-family="Helvetica" style="cursor: default; font-weight: normal;">Firmicutes - 463 (0.75%)</text><rect x="400" y="325" width="15" height="15" stroke="white" stroke-width="0" fill="#22aa99"></rect><text x="430" y="338" font-size="15" font-weight="normal" font-family="Helvetica" style="cursor: default; font-weight: normal;">Verrucomicrobia - 437 (0.70%)</text><rect x="400" y="350" width="15" height="15" stroke="white" stroke-width="0" fill="#aaaa11"></rect><text x="430" y="363" font-size="15" font-weight="normal" font-family="Helvetica" style="cursor: default; font-weight: normal;">Actinobacteria - 421 (0.68%)</text><rect x="400" y="375" width="15" height="15" stroke="white" stroke-width="0" fill="#6633cc"></rect><text x="430" y="388" font-size="15" font-weight="normal" font-family="Helvetica" style="cursor: default; font-weight: normal;">unclassified (derived from Archaea) - 419 (0.68%)</text><rect x="400" y="400" width="15" height="15" stroke="white" stroke-width="0" fill="#e67300"></rect><text x="430" y="413" font-size="15" font-weight="normal" font-family="Helvetica" style="cursor: default;">Arthropoda - 375 (0.60%)</text><rect x="400" y="425" width="15" height="15" stroke="white" stroke-width="0" fill="#8b0707"></rect><text x="430" y="438" font-size="15" font-weight="normal" font-family="Helvetica" style="cursor: default;">Ascomycota - 363 (0.59%)</text><rect x="400" y="450" width="15" height="15" stroke="white" stroke-width="0" fill="#651067"></rect><text x="430" y="463" font-size="15" font-weight="normal" font-family="Helvetica" style="cursor: default;">Bacillariophyta - 354 (0.57%)</text><rect x="400" y="475" width="15" height="15" stroke="white" stroke-width="0" fill="#329262"></rect><text x="430" y="488" font-size="15" font-weight="normal" font-family="Helvetica" style="cursor: default;">Euryarchaeota - 353 (0.57%)</text><rect x="400" y="500" width="15" height="15" stroke="white" stroke-width="0" fill="#5574a6"></rect><text x="430" y="513" font-size="15" font-weight="normal" font-family="Helvetica" style="cursor: default;">Planctomycetes - 340 (0.55%)</text><rect x="400" y="525" width="15" height="15" stroke="white" stroke-width="0" fill="#3b3eac"></rect><text x="430" y="538" font-size="15" font-weight="normal" font-family="Helvetica" style="cursor: default;">Phaeophyceae - 312 (0.50%)</text><rect x="400" y="550" width="15" height="15" stroke="white" stroke-width="0" fill="#b77322"></rect><text x="430" y="563" font-size="15" font-weight="normal" font-family="Helvetica" style="cursor: default;">Apicomplexa - 162 (0.26%)</text><rect x="400" y="575" width="15" height="15" stroke="white" stroke-width="0" fill="#16d620"></rect><text x="430" y="588" font-size="15" font-weight="normal" font-family="Helvetica" style="cursor: default;">Lentisphaerae - 85 (0.14%)</text><rect x="400" y="600" width="15" height="15" stroke="white" stroke-width="0" fill="#b91383"></rect><text x="430" y="613" font-size="15" font-weight="normal" font-family="Helvetica" style="cursor: default;">Nematoda - 81 (0.13%)</text><rect x="400" y="625" width="15" height="15" stroke="white" stroke-width="0" fill="#f4359e"></rect><text x="430" y="638" font-size="15" font-weight="normal" font-family="Helvetica" style="cursor: default;">Chloroflexi - 77 (0.12%)</text><rect x="400" y="650" width="15" height="15" stroke="white" stroke-width="0" fill="#9c5935"></rect><text x="430" y="663" font-size="15" font-weight="normal" font-family="Helvetica" style="cursor: default;">Cnidaria - 74 (0.12%)</text><rect x="400" y="675" width="15" height="15" stroke="white" stroke-width="0" fill="#a9c413"></rect><text x="430" y="688" font-size="15" font-weight="normal" font-family="Helvetica" style="cursor: default;">Basidiomycota - 66 (0.11%)</text><rect x="400" y="700" width="15" height="15" stroke="white" stroke-width="0" fill="#2a778d"></rect><text x="430" y="713" font-size="15" font-weight="normal" font-family="Helvetica" style="cursor: default;">Echinodermata - 51 (0.08%)</text><rect x="400" y="725" width="15" height="15" stroke="white" stroke-width="0" fill="#668d1c"></rect><text x="430" y="738" font-size="15" font-weight="normal" font-family="Helvetica" style="cursor: default;">Chlorobi - 48 (0.08%)</text><rect x="400" y="750" width="15" height="15" stroke="white" stroke-width="0" fill="#bea413"></rect><text x="430" y="763" font-size="15" font-weight="normal" font-family="Helvetica" style="cursor: default;">Deinococcus-Thermus - 43 (0.07%)</text><rect x="400" y="775" width="15" height="15" stroke="white" stroke-width="0" fill="#0c5922"></rect><text x="430" y="788" font-size="15" font-weight="normal" font-family="Helvetica" style="cursor: default;">Hemichordata - 41 (0.07%)</text><rect x="400" y="800" width="15" height="15" stroke="white" stroke-width="0" fill="#743411"></rect><text x="430" y="813" font-size="15" font-weight="normal" font-family="Helvetica" style="cursor: default;">Spirochaetes - 37 (0.06%)</text><rect x="400" y="825" width="15" height="15" stroke="white" stroke-width="0" fill="#5386ec"></rect><text x="430" y="838" font-size="15" font-weight="normal" font-family="Helvetica" style="cursor: default;">Acidobacteria - 36 (0.06%)</text><rect x="400" y="850" width="15" height="15" stroke="white" stroke-width="0" fill="#fc5932"></rect><text x="430" y="863" font-size="15" font-weight="normal" font-family="Helvetica" style="cursor: default;">Chlamydiae - 32 (0.05%)</text><rect x="400" y="875" width="15" height="15" stroke="white" stroke-width="0" fill="#ffb920"></rect><text x="430" y="888" font-size="15" font-weight="normal" font-family="Helvetica" style="cursor: default;">Crenarchaeota - 23 (0.04%)</text><rect x="400" y="900" width="15" height="15" stroke="white" stroke-width="0" fill="#30b638"></rect><text x="430" y="913" font-size="15" font-weight="normal" font-family="Helvetica">Thermotogae - 16 (0.03%)</text><rect x="400" y="925" width="15" height="15" stroke="white" stroke-width="0" fill="#b920b9"></rect><text x="430" y="938" font-size="15" font-weight="normal" font-family="Helvetica">Fusobacteria - 15 (0.02%)</text><rect x="400" y="950" width="15" height="15" stroke="white" stroke-width="0" fill="#20b9e6"></rect><text x="430" y="963" font-size="15" font-weight="normal" font-family="Helvetica">Thaumarchaeota - 13 (0.02%)</text><rect x="400" y="975" width="15" height="15" stroke="white" stroke-width="0" fill="#fd6497"></rect><text x="430" y="988" font-size="15" font-weight="normal" font-family="Helvetica">Deferribacteres - 13 (0.02%)</text><rect x="400" y="1000" width="15" height="15" stroke="white" stroke-width="0" fill="#86ca20"></rect><text x="430" y="1013" font-size="15" font-weight="normal" font-family="Helvetica">Placozoa - 13 (0.02%)</text><rect x="400" y="1025" width="15" height="15" stroke="white" stroke-width="0" fill="#d84e4e"></rect><text x="430" y="1038" font-size="15" font-weight="normal" font-family="Helvetica">Aquificae - 12 (0.02%)</text><rect x="400" y="1050" width="15" height="15" stroke="white" stroke-width="0" fill="#5183b5"></rect><text x="430" y="1063" font-size="15" font-weight="normal" font-family="Helvetica">Nitrospirae - 12 (0.02%)</text><rect x="400" y="1075" width="15" height="15" stroke="white" stroke-width="0" fill="#b964b9"></rect><text x="430" y="1088" font-size="15" font-weight="normal" font-family="Helvetica">Synergistetes - 12 (0.02%)</text><rect x="400" y="1100" width="15" height="15" stroke="white" stroke-width="0" fill="#42cab9"></rect><text x="430" y="1113" font-size="15" font-weight="normal" font-family="Helvetica">Platyhelminthes - 9 (0.01%)</text><rect x="400" y="1125" width="15" height="15" stroke="white" stroke-width="0" fill="#caca31"></rect><text x="430" y="1138" font-size="15" font-weight="normal" font-family="Helvetica">Chrysiogenetes - 6 (0.01%)</text><rect x="400" y="1150" width="15" height="15" stroke="white" stroke-width="0" fill="#8653ec"></rect><text x="430" y="1163" font-size="15" font-weight="normal" font-family="Helvetica">Gemmatimonadetes - 6 (0.01%)</text><rect x="400" y="1175" width="15" height="15" stroke="white" stroke-width="0" fill="#ff9320"></rect><text x="430" y="1188" font-size="15" font-weight="normal" font-family="Helvetica">Porifera - 6 (0.01%)</text><rect x="400" y="1200" width="15" height="15" stroke="white" stroke-width="0" fill="#ab2727"></rect><text x="430" y="1213" font-size="15" font-weight="normal" font-family="Helvetica">Candidatus Poribacteria - 5 (0.01%)</text><rect x="400" y="1225" width="15" height="15" stroke="white" stroke-width="0" fill="#853087"></rect><text x="430" y="1238" font-size="15" font-weight="normal" font-family="Helvetica">Elusimicrobia - 5 (0.01%)</text><rect x="400" y="1250" width="15" height="15" stroke="white" stroke-width="0" fill="#52b282"></rect><text x="430" y="1263" font-size="15" font-weight="normal" font-family="Helvetica">Fibrobacteres - 5 (0.01%)</text><rect x="400" y="1275" width="15" height="15" stroke="white" stroke-width="0" fill="#7594c6"></rect><text x="430" y="1288" font-size="15" font-weight="normal" font-family="Helvetica">Tenericutes - 4 (0.01%)</text><rect x="400" y="1300" width="15" height="15" stroke="white" stroke-width="0" fill="#5b5ecc"></rect><text x="430" y="1313" font-size="15" font-weight="normal" font-family="Helvetica">Microsporidia - 4 (0.01%)</text><rect x="400" y="1325" width="15" height="15" stroke="white" stroke-width="0" fill="#d79342"></rect><text x="430" y="1338" font-size="15" font-weight="normal" font-family="Helvetica">Dictyoglomi - 3 (0.00%)</text><rect x="400" y="1350" width="15" height="15" stroke="white" stroke-width="0" fill="#36f640"></rect><text x="430" y="1363" font-size="15" font-weight="normal" font-family="Helvetica">Mollusca - 3 (0.00%)</text><rect x="400" y="1375" width="15" height="15" stroke="white" stroke-width="0" fill="#d933a3"></rect><text x="430" y="1388" font-size="15" font-weight="normal" font-family="Helvetica">unclassified (derived from other sequences) - 3 (0.00%)</text><rect x="400" y="1400" width="15" height="15" stroke="white" stroke-width="0" fill="#ff55be"></rect><text x="430" y="1413" font-size="15" font-weight="normal" font-family="Helvetica">Euglenida - 2 (0.00%)</text><rect x="400" y="1425" width="15" height="15" stroke="white" stroke-width="0" fill="#bc7955"></rect><text x="430" y="1438" font-size="15" font-weight="normal" font-family="Helvetica">Rotifera - 1 (0.00%)</text></g></svg>